<svg id="Group_1276" data-name="Group 1276" xmlns="http://www.w3.org/2000/svg" width="16.305" height="16.305" viewBox="0 0 16.305 16.305">
  <path id="Path_150" data-name="Path 150" d="M332.407,260.989a8.153,8.153,0,1,1-8.153-8.153,8.153,8.153,0,0,1,8.153,8.153" transform="translate(-316.102 -252.836)" fill="#FFFFFF"/>
  <path id="Path_151" data-name="Path 151" d="M398.507,327.5h-2.663v-3a.646.646,0,1,0-1.286,0v3h-2.663a.71.71,0,0,0,0,1.413h2.663v2.859a.646.646,0,1,0,1.286,0v-2.859h2.663a.71.71,0,0,0,0-1.413" transform="translate(-386.812 -319.991)" fill="#06399DE5"/>
</svg>
