<svg id="Bell" xmlns="http://www.w3.org/2000/svg" xmlns:xlink="http://www.w3.org/1999/xlink" width="26.302" height="31.978" viewBox="0 0 26.302 31.978">
  <defs>
    <clipPath id="clip-path">
      <rect id="Rectangle_1011" data-name="Rectangle 1011" width="26.302" height="31.978" fill="none"/>
    </clipPath>
  </defs>
  <g id="Group_2716" data-name="Group 2716" transform="translate(0 0)" clip-path="url(#clip-path)">
    <path id="Path_2057" data-name="Path 2057" d="M11,25.327h-.09A4.205,4.205,0,0,1,6.8,21.034l2.237.047a1.968,1.968,0,1,0,3.935.081V21.15c0-.019,0-.039,0-.058l2.237-.07c0,.063,0,.127,0,.19A4.205,4.205,0,0,1,11,25.327Z" transform="translate(2.15 6.651)" fill="#212121"/>
    <path id="Path_2058" data-name="Path 2058" d="M24.084,26.9H2.217a2.217,2.217,0,0,1-2-3.167,19.1,19.1,0,0,0,2.028-7.206V11.409A11.176,11.176,0,0,1,13.123,0h.056A11.174,11.174,0,0,1,24.06,11.414v5.121a19.112,19.112,0,0,0,2.027,7.2,2.216,2.216,0,0,1-2,3.167ZM2.25,24.664h21.8a20.721,20.721,0,0,1-2.228-8.13V11.374a8.934,8.934,0,0,0-8.672-9.136,8.936,8.936,0,0,0-8.671,9.131v5.16A20.709,20.709,0,0,1,2.25,24.664Z" transform="translate(0 0)" fill="#212121"/>
  </g>
</svg>
