<svg id="Photo" xmlns="http://www.w3.org/2000/svg" xmlns:xlink="http://www.w3.org/1999/xlink" width="23.7" height="19.7" viewBox="0 0 23.7 19.7">
  <defs>
    <clipPath id="clip-path">
      <rect id="Rectangle_1015" data-name="Rectangle 1015" width="23.7" height="19.7" transform="translate(0 0)" fill="none"/>
    </clipPath>
  </defs>
  <g id="Group_2729" data-name="Group 2729" clip-path="url(#clip-path)">
    <path id="Path_2070" data-name="Path 2070" d="M22.85,15.851a3,3,0,0,1-3,3h-16a3,3,0,0,1-3-3v-9a3,3,0,0,1,3-3H6.316a1,1,0,0,0,.83-.444L8.4,1.519a1.5,1.5,0,0,1,1.25-.67h4.338a1.6,1.6,0,0,1,1.334.715L16.554,3.4a1,1,0,0,0,.83.444h2.468a3,3,0,0,1,3,3Z" fill="none" stroke="#212121" stroke-linecap="round" stroke-linejoin="round" stroke-width="1.7"/>
    <circle id="Ellipse_10" data-name="Ellipse 10" cx="4" cy="4" r="4" transform="translate(7.85 6.85)" fill="none" stroke="#212121" stroke-linecap="round" stroke-linejoin="round" stroke-width="1.7"/>
  </g>
</svg>
