<svg xmlns="http://www.w3.org/2000/svg" width="18.899" height="18.9" viewBox="0 0 18.899 18.9">
  <g id="edit-2" transform="translate(-1.15 -1.322)">
    <g id="Group_2711" data-name="Group 2711" transform="translate(2 2.172)">
      <path id="Path_2050" data-name="Path 2050" d="M16.747,1.322a3.3,3.3,0,0,1,2.336,5.64L7.372,18.672a.85.85,0,0,1-.377.219l-4.771,1.3A.85.85,0,0,1,1.18,19.149l1.3-4.771A.85.85,0,0,1,2.7,14L14.411,2.289A3.282,3.282,0,0,1,16.747,1.322ZM6.33,17.31,17.881,5.759a1.6,1.6,0,0,0-2.268-2.268L4.062,15.043l-.85,3.118Z" transform="translate(-2 -2.172)" fill="#212121"/>
    </g>
  </g>
</svg>
