<svg id="Filter_contacts" data-name="Filter contacts" xmlns="http://www.w3.org/2000/svg" width="18.846" height="16.013" viewBox="0 0 18.846 16.013">
  <path id="Filters" d="M15.149,20.33a2.232,2.232,0,0,0,1.16-.309,2.327,2.327,0,0,0,.831-.835,2.319,2.319,0,0,0,0-2.315,2.334,2.334,0,0,0-.831-.831,2.323,2.323,0,0,0-2.316,0,2.322,2.322,0,0,0-.835.831,2.321,2.321,0,0,0,0,2.315,2.312,2.312,0,0,0,.835.835A2.239,2.239,0,0,0,15.149,20.33Zm0-1.189a1.1,1.1,0,1,1,.791-.325A1.071,1.071,0,0,1,15.149,19.14Zm-1.52-1.932H3.162a.769.769,0,0,0-.574.241.8.8,0,0,0-.234.58.793.793,0,0,0,.235.571.768.768,0,0,0,.574.242H13.629Zm6.8,0H16.8v1.635h3.632a.724.724,0,0,0,.543-.241.8.8,0,0,0,.229-.571.813.813,0,0,0-.229-.581A.725.725,0,0,0,20.428,17.208ZM8.513,14.628a2.214,2.214,0,0,0,1.15-.309,2.378,2.378,0,0,0,.836-.831,2.289,2.289,0,0,0,0-2.315,2.362,2.362,0,0,0-.836-.835,2.312,2.312,0,0,0-2.31,0,2.357,2.357,0,0,0-.836.835,2.293,2.293,0,0,0,0,2.315,2.369,2.369,0,0,0,.836.831A2.233,2.233,0,0,0,8.513,14.628Zm0-1.189a1.11,1.11,0,1,1,.787-1.9,1.141,1.141,0,0,1,0,1.576A1.052,1.052,0,0,1,8.513,13.438ZM3.135,11.515a.741.741,0,0,0-.552.237.835.835,0,0,0,0,1.151.741.741,0,0,0,.551.238H6.893V11.515Zm17.256,0H10.022v1.626h10.37a.775.775,0,0,0,.574-.237.828.828,0,0,0,0-1.153A.777.777,0,0,0,20.392,11.515ZM15.149,8.926a2.208,2.208,0,0,0,1.16-.314,2.374,2.374,0,0,0,.831-.835,2.309,2.309,0,0,0,0-2.31,2.375,2.375,0,0,0-.831-.835,2.293,2.293,0,0,0-2.315,0,2.359,2.359,0,0,0-.835.835,2.313,2.313,0,0,0,0,2.31,2.358,2.358,0,0,0,.835.835A2.215,2.215,0,0,0,15.149,8.926Zm0-1.2a1.078,1.078,0,0,1-.785-.321,1.065,1.065,0,0,1-.325-.79,1.05,1.05,0,0,1,.325-.786,1.142,1.142,0,0,1,1.576,0,1.059,1.059,0,0,1,.32.786,1.094,1.094,0,0,1-1.111,1.11ZM13.674,5.813H3.162a.776.776,0,0,0-.574.237.823.823,0,0,0,0,1.151.775.775,0,0,0,.574.238H13.674Zm6.753,0H16.68V7.439h3.747A.73.73,0,0,0,20.97,7.2a.84.84,0,0,0,0-1.153A.731.731,0,0,0,20.428,5.813Z" transform="translate(-2.354 -4.317)" fill="#707070"/>
</svg>
