<svg xmlns="http://www.w3.org/2000/svg" xmlns:xlink="http://www.w3.org/1999/xlink" width="23.352" height="25.428" viewBox="0 0 23.352 25.428">
  <defs>
    <clipPath id="clip-path">
      <rect id="Rectangle_218" data-name="Rectangle 218" width="23.352" height="25.428" fill="#444141"/>
    </clipPath>
  </defs>
  <g id="Group_144" data-name="Group 144" transform="translate(23.352 25.428) rotate(180)">
    <g id="Group_143" data-name="Group 143" clip-path="url(#clip-path)">
      <path id="Path_180" data-name="Path 180" d="M101.914,114.694v.456a6.937,6.937,0,0,0,2.7,0v-.456a.676.676,0,0,1,.488-.638,6.023,6.023,0,0,0,.954-.4.676.676,0,0,1,.8.106l.324.324a7.054,7.054,0,0,0,1.91-1.91l-.324-.324h0a.676.676,0,0,1-.106-.8,6.028,6.028,0,0,0,.4-.954.676.676,0,0,1,.638-.488h.456a6.936,6.936,0,0,0,0-2.7h-.456a.677.677,0,0,1-.638-.488,6,6,0,0,0-.4-.954.677.677,0,0,1,.106-.8l.324-.324a7.054,7.054,0,0,0-1.91-1.911l-.324.324a.677.677,0,0,1-.8.106,6.034,6.034,0,0,0-.954-.4.676.676,0,0,1-.488-.638v-.456a6.936,6.936,0,0,0-2.7,0v.456a.676.676,0,0,1-.488.638,6.017,6.017,0,0,0-.954.4.676.676,0,0,1-.8-.106l-.324-.324h0a7.053,7.053,0,0,0-1.91,1.91l.324.324a.677.677,0,0,1,.106.8,6.017,6.017,0,0,0-.4.954.677.677,0,0,1-.638.488H96.38a6.936,6.936,0,0,0,0,2.7h.456a.676.676,0,0,1,.638.488,6.011,6.011,0,0,0,.4.954.677.677,0,0,1-.106.8l-.324.324a7.055,7.055,0,0,0,1.91,1.911l.324-.324h0a.677.677,0,0,1,.8-.106,6.037,6.037,0,0,0,.954.4.676.676,0,0,1,.488.638Zm-2.983-6.428a4.334,4.334,0,1,1,1.269,3.065,4.334,4.334,0,0,1-1.269-3.065" transform="translate(-91.707 -96.472)" fill="#444141"/>
      <path id="Path_181" data-name="Path 181" d="M200.573,22.939l3.983-2.489v1.668A10.5,10.5,0,0,0,202.67,1.3h-.236V0h.236a11.792,11.792,0,0,1,1.887,23.432v2Z" transform="translate(-191.111 -0.001)" fill="#444141"/>
      <path id="Path_182" data-name="Path 182" d="M117.8,33.075c.224-.137.457-.268.693-.389l-.378-.735c-.254.131-.5.271-.746.419Z" transform="translate(-111.834 -30.444)" fill="#444141"/>
      <path id="Path_183" data-name="Path 183" d="M63.079,74.7l-.574-.593c-.2.2-.4.406-.592.618l.617.549c.175-.2.36-.39.55-.574Z" transform="translate(-58.992 -70.615)" fill="#444141"/>
      <path id="Path_184" data-name="Path 184" d="M173.04,468.319c.272.084.55.158.827.221l.183-.805c-.257-.058-.516-.127-.768-.2Z" transform="translate(-164.877 -445.475)" fill="#444141"/>
      <path id="Path_185" data-name="Path 185" d="M149.936,18.9c.241-.1.491-.2.742-.282l-.264-.782c-.27.091-.539.194-.8.3Z" transform="translate(-142.556 -16.995)" fill="#444141"/>
      <path id="Path_186" data-name="Path 186" d="M1.748,269.991l-.822.072c.025.283.06.569.105.849l.815-.132c-.042-.26-.075-.525-.1-.789Z" transform="translate(-0.882 -257.254)" fill="#444141"/>
      <path id="Path_187" data-name="Path 187" d="M107.79,439.182c.235.159.479.312.726.454l.411-.716c-.229-.132-.456-.273-.675-.421Z" transform="translate(-102.705 -417.812)" fill="#444141"/>
      <path id="Path_188" data-name="Path 188" d="M7.533,303.21l-.8.193c.066.276.144.553.23.824l.786-.252C7.666,303.723,7.594,303.466,7.533,303.21Z" transform="translate(-6.413 -288.906)" fill="#444141"/>
      <path id="Path_189" data-name="Path 189" d="M.826,235.97q0-.325.019-.646l-.824-.048Q0,235.62,0,235.97v.16l.826-.01Z" transform="translate(0 -224.176)" fill="#444141"/>
      <path id="Path_190" data-name="Path 190" d="M139.23,456.021c.255.123.52.237.786.342l.3-.769c-.247-.1-.492-.2-.729-.316Z" transform="translate(-132.662 -433.8)" fill="#444141"/>
      <path id="Path_191" data-name="Path 191" d="M18.548,335.26l-.765.31c.107.264.225.527.35.781l.74-.366c-.116-.236-.226-.48-.325-.724Z" transform="translate(-16.944 -319.445)" fill="#444141"/>
      <path id="Path_192" data-name="Path 192" d="M79.35,418.226c.21.193.429.379.651.555l.512-.647c-.206-.163-.41-.337-.606-.516Z" transform="translate(-75.607 -397.916)" fill="#444141"/>
      <path id="Path_193" data-name="Path 193" d="M41.014,101.692l-.656-.5c-.173.227-.34.462-.495.7l.69.452c.144-.22.3-.438.46-.649Z" transform="translate(-37.983 -96.417)" fill="#444141"/>
      <path id="Path_194" data-name="Path 194" d="M23.4,131.923l-.722-.4c-.137.248-.268.505-.387.764l.75.345C23.154,132.392,23.274,132.153,23.4,131.923Z" transform="translate(-21.241 -125.319)" fill="#444141"/>
      <path id="Path_195" data-name="Path 195" d="M34.559,365.43l-.711.42c.145.245.3.487.461.72l.678-.471c-.15-.216-.295-.441-.429-.669Z" transform="translate(-32.251 -348.191)" fill="#444141"/>
      <path id="Path_196" data-name="Path 196" d="M2.17,200.188l.818.11c.035-.261.08-.525.135-.783l-.808-.17C2.256,199.623,2.208,199.907,2.17,200.188Z" transform="translate(-2.068 -189.941)" fill="#444141"/>
      <path id="Path_197" data-name="Path 197" d="M54.51,393.606c.179.221.368.437.563.645l.6-.566c-.181-.192-.357-.394-.523-.6Z" transform="translate(-51.939 -374.544)" fill="#444141"/>
      <path id="Path_198" data-name="Path 198" d="M87.94,51.377l.529.634c.2-.168.413-.333.628-.487l-.482-.671c-.231.167-.459.343-.676.524" transform="translate(-83.792 -48.454)" fill="#444141"/>
      <path id="Path_199" data-name="Path 199" d="M10.675,164.787,9.9,164.5c-.1.266-.189.539-.269.813l.793.23c.074-.254.158-.509.25-.755Z" transform="translate(-9.179 -156.739)" fill="#444141"/>
      <path id="Path_200" data-name="Path 200" d="M184.15,9.809c.255-.066.516-.122.776-.168l-.144-.813c-.28.05-.561.111-.837.181Z" transform="translate(-175.267 -8.412)" fill="#444141"/>
    </g>
  </g>
</svg>
