<svg xmlns="http://www.w3.org/2000/svg" width="15" height="15" viewBox="0 0 15 15">
  <g id="search" transform="translate(-2.15 -2.15)">
    <g id="Group_2697" data-name="Group 2697" transform="translate(2.15 2.15)">
      <path id="Ellipse_2" data-name="Ellipse 2" d="M6.324-.85A7.174,7.174,0,1,1-.85,6.324,7.182,7.182,0,0,1,6.324-.85Zm0,12.97a5.8,5.8,0,1,0-5.8-5.8A5.8,5.8,0,0,0,6.324,12.12Z" transform="translate(0.85 0.85)" fill="#a5a5a5"/>
      <path id="Path_2025" data-name="Path 2025" d="M19.046,19.735a.687.687,0,0,1-.487-.2L16,16.976A.689.689,0,0,1,16.976,16l2.557,2.557a.689.689,0,0,1-.487,1.176Z" transform="translate(-4.735 -4.735)" fill="#a5a5a5"/>
    </g>
  </g>
</svg>
