<svg xmlns="http://www.w3.org/2000/svg" width="21.7" height="21.7" viewBox="0 0 21.7 21.7">
  <g id="send" transform="translate(-1.15 -1.15)">
    <g id="Group_2696" data-name="Group 2696">
      <path id="Path_2023" data-name="Path 2023" d="M11,13.85a.85.85,0,0,1-.6-1.451l11-11a.85.85,0,0,1,1.2,1.2l-11,11A.847.847,0,0,1,11,13.85Z" fill="#00246A"/>
      <path id="Path_2024" data-name="Path 2024" d="M22,1.15a.85.85,0,0,1,.8,1.131l-7,20a.85.85,0,0,1-1.579.064l-3.867-8.7-8.7-3.867A.85.85,0,0,1,1.719,8.2l20-7A.849.849,0,0,1,22,1.15ZM14.906,19.7l5.709-16.31L4.3,9.094l7.041,3.129a.85.85,0,0,1,.432.432Z" fill="#00246A"/>
    </g>
  </g>
</svg>
