<svg id="settings" xmlns="http://www.w3.org/2000/svg" width="29.134" height="29.134" viewBox="0 0 29.134 29.134">
  <g id="Group_2695" data-name="Group 2695" transform="translate(0 0)">
    <path id="Ellipse_1" data-name="Ellipse 1" d="M4.218-.85A5.068,5.068,0,1,1-.85,4.218,5.074,5.074,0,0,1,4.218-.85Zm0,7.9a2.83,2.83,0,1,0-2.83-2.83A2.833,2.833,0,0,0,4.218,7.048Z" transform="translate(10.349 10.349)" fill="#212121"/>
    <path id="Path_2022" data-name="Path 2022" d="M14.815,29.284a3.507,3.507,0,0,1-3.5-3.5v-.1a.978.978,0,0,0-.643-.89l-.061-.025a.983.983,0,0,0-1.082.194l-.069.069A3.5,3.5,0,1,1,4.5,20.075l.068-.068a.979.979,0,0,0,.194-1.081l0-.01a.983.983,0,0,0-.9-.6h-.2a3.5,3.5,0,0,1,0-7.007h.1a.978.978,0,0,0,.89-.643q.011-.031.025-.061a.979.979,0,0,0-.194-1.081L4.4,9.457A3.5,3.5,0,1,1,9.359,4.5l.068.068a.983.983,0,0,0,1.082.194,1.045,1.045,0,0,1,.24-.073.983.983,0,0,0,.464-.831v-.2a3.5,3.5,0,0,1,7.007,0v.111a.981.981,0,0,0,.6.9l.01,0a.983.983,0,0,0,1.082-.194l.069-.069a3.5,3.5,0,1,1,4.956,4.957l-.068.068a.979.979,0,0,0-.194,1.081,1.045,1.045,0,0,1,.073.24.983.983,0,0,0,.831.464h.2a3.5,3.5,0,1,1,0,7.007H25.67a.981.981,0,0,0-.9.6l0,.01a.979.979,0,0,0,.194,1.081l.069.069a3.5,3.5,0,1,1-4.957,4.956l-.068-.068a.983.983,0,0,0-1.082-.194l-.01,0a.983.983,0,0,0-.6.9v.2A3.507,3.507,0,0,1,14.815,29.284Zm-3.395-6.439a3.056,3.056,0,0,1,1.981,2.8q0,.012,0,.024v.111a1.414,1.414,0,0,0,2.827,0v-.209a3.087,3.087,0,0,1,5.242-2.2l.008.008.074.074a1.415,1.415,0,1,0,2-2l-.074-.074-.008-.008a3.09,3.09,0,0,1,2.193-5.242h.115a1.414,1.414,0,1,0,0-2.827h-.209a3.073,3.073,0,0,1-2.817-1.863,1.045,1.045,0,0,1-.078-.294,3.057,3.057,0,0,1,.7-3.184l.008-.008.074-.074a1.415,1.415,0,1,0-2-2l-.074.074-.008.008a3.09,3.09,0,0,1-5.242-2.193V3.653a1.414,1.414,0,1,0-2.827,0v.209a3.073,3.073,0,0,1-1.863,2.817,1.045,1.045,0,0,1-.294.078,3.074,3.074,0,0,1-3.184-.7l-.008-.008-.074-.074a1.415,1.415,0,1,0-2,2l.074.074.008.008a3.058,3.058,0,0,1,.628,3.36,3.056,3.056,0,0,1-2.8,1.981H3.653a1.414,1.414,0,1,0,0,2.827h.209a3.09,3.09,0,0,1,2.2,5.242l-.008.008-.074.074a1.415,1.415,0,1,0,2,2l.074-.074.008-.008a3.073,3.073,0,0,1,3.36-.628Z" transform="translate(-0.15 -0.15)" fill="#212121"/>
  </g>
</svg>
