<?xml version="1.0" encoding="UTF-8"?>
<svg version="1.1" xmlns="http://www.w3.org/2000/svg" width="191" height="52">
<path d="M0 0 C3.5060303 0.86943897 4.94966563 2.56083702 6.9375 5.48046875 C7.25 9.29296875 7.25 9.29296875 6.9375 12.48046875 C7.700625 12.56296875 8.46375 12.64546875 9.25 12.73046875 C12.48465191 13.6331623 13.28849265 14.61640336 14.9375 17.48046875 C14.9375 18.14046875 14.9375 18.80046875 14.9375 19.48046875 C14.18984375 19.44566406 13.4421875 19.41085938 12.671875 19.375 C11.68703125 19.34792969 10.7021875 19.32085938 9.6875 19.29296875 C8.71296875 19.25816406 7.7384375 19.22335938 6.734375 19.1875 C3.50973082 19.52527697 2.22959203 20.22517636 -0.0625 22.48046875 C-1.88956272 27.96165691 -1.54963693 33.25748119 0.9375 38.48046875 C2.65130616 39.51604172 2.65130616 39.51604172 4.9375 39.48046875 C6.05125 39.54234375 7.165 39.60421875 8.3125 39.66796875 C11.8994905 39.48243476 14.60834417 38.77965151 17.9375 37.48046875 C18.4325 40.94546875 18.4325 40.94546875 18.9375 44.48046875 C5.4075 44.48046875 -8.1225 44.48046875 -22.0625 44.48046875 C-20.88681034 29.19650323 -20.88681034 29.19650323 -19.6875 22.85546875 C-19.5740625 22.17613281 -19.460625 21.49679688 -19.34375 20.796875 C-18.67359944 17.18233953 -18.15155096 14.65773877 -15.0625 12.48046875 C-12.875 11.79296875 -12.875 11.79296875 -11.0625 11.48046875 C-11.165625 10.59359375 -11.26875 9.70671875 -11.375 8.79296875 C-11.0625 5.48046875 -11.0625 5.48046875 -9.0625 2.60546875 C-5.72064571 0.23832196 -4.00209545 -0.28044987 0 0 Z M-6.875 4.60546875 C-8.544121 6.97207228 -8.544121 6.97207228 -9.0625 12.48046875 C-4.4425 12.48046875 0.1775 12.48046875 4.9375 12.48046875 C3.81052957 7.51135509 3.81052957 7.51135509 0.9375 3.48046875 C-2.13819148 3.15326753 -4.20071847 2.94556987 -6.875 4.60546875 Z " fill="#5CAF90" transform="translate(23.0625,-0.48046875)"/>
<path d="M0 0 C2.37656941 2.31402811 3.95672986 4.31837415 5.375 7.3125 C5.375 7.9725 5.375 8.6325 5.375 9.3125 C2.54616253 10.72691874 0.50123255 10.63150332 -2.625 10.3125 C-3.099375 9.673125 -3.57375 9.03375 -4.0625 8.375 C-5.56200907 5.96258182 -5.56200907 5.96258182 -9 5.375 C-13.06174387 5.30496993 -14.56486449 5.68952671 -17.625 8.3125 C-19.92255469 12.25116518 -20.01206131 15.82258876 -19.625 20.3125 C-18.69732243 23.66432773 -17.5788254 26.49493537 -14.875 28.8125 C-10.99938161 29.67374853 -7.16680799 29.083404 -3.625 27.3125 C-2.96944881 24.78516765 -2.96944881 24.78516765 -2.625 22.3125 C-5.265 22.3125 -7.905 22.3125 -10.625 22.3125 C-10.625 20.3325 -10.625 18.3525 -10.625 16.3125 C-5.345 16.3125 -0.065 16.3125 5.375 16.3125 C5.49875 18.705 5.6225 21.0975 5.75 23.5625 C5.80462402 24.30918945 5.85924805 25.05587891 5.91552734 25.82519531 C5.9609375 27.640625 5.9609375 27.640625 5.375 31.3125 C-0.48485756 36.31678607 -5.8745901 36.71823062 -13.31640625 36.66015625 C-18.06616204 36.16106739 -21.16990982 34.56330464 -24.625 31.3125 C-29.14197641 25.33843443 -29.34819594 18.57459259 -28.625 11.3125 C-26.99231034 5.96189205 -24.38155928 2.36157646 -19.625 -0.6875 C-13.33348134 -2.78467289 -6.00294747 -2.79447555 0 0 Z " fill="#4B5966" transform="translate(74.625,15.6875)"/>
<path d="M0 0 C2.64 0 5.28 0 8 0 C8.33 3.3 8.66 6.6 9 10 C9.66 9.67 10.32 9.34 11 9 C15.72102578 8.52789742 18.65955345 8.26635908 22.4375 11.3125 C26.39839985 15.46661447 26.28256294 19.02022793 26.21875 24.4921875 C25.84067597 28.8265362 24.17350311 31.64595795 21.375 34.875 C17.66654357 36.63163725 14.03036883 36.20040508 10 36 C9.01 36 8.02 36 7 36 C4.69 36 2.38 36 0 36 C0 24.12 0 12.24 0 0 Z M8 17 C7.23470106 20.37069167 7.42154387 23.60157026 8 27 C9.79191458 29.63516042 9.79191458 29.63516042 12 31 C15.72614153 29.88145414 15.72614153 29.88145414 18 27 C18.52329267 22.55630163 18.82592598 19.12876551 16.125 15.4375 C12.54661148 13.01682541 10.96328218 14.18852531 8 17 Z " fill="#4B5966" transform="translate(133,15)"/>
<path d="M0 0 C1.03769531 -0.03738281 2.07539062 -0.07476563 3.14453125 -0.11328125 C7.14371407 0.44629632 8.59790249 1.1843786 11.1875 4.3125 C11.91224532 7.66439967 11.93263856 10.95497613 11.9375 14.375 C11.97068448 16.17844863 12.00700809 17.98184297 12.046875 19.78515625 C12.05170898 20.58187744 12.05654297 21.37859863 12.06152344 22.19946289 C12.10730155 24.50391836 12.10730155 24.50391836 13.1875 27.3125 C5.4375 27.4375 5.4375 27.4375 3.1875 26.3125 C2.5275 26.6425 1.8675 26.9725 1.1875 27.3125 C-2.84570632 27.71737785 -6.55129576 27.8485118 -10.3125 26.25 C-12.55376511 23.35503257 -12.68586669 20.92154929 -12.8125 17.3125 C-12.375 15.0625 -12.375 15.0625 -10.8125 13.3125 C-6.37331117 11.04719312 -1.74628046 9.92922256 3.1875 9.3125 C3.1875 8.3225 3.1875 7.3325 3.1875 6.3125 C0.8775 6.3125 -1.4325 6.3125 -3.8125 6.3125 C-3.8125 6.9725 -3.8125 7.6325 -3.8125 8.3125 C-6.6875 8.4375 -6.6875 8.4375 -9.8125 8.3125 C-10.4725 7.6525 -11.1325 6.9925 -11.8125 6.3125 C-7.91647365 1.24766574 -6.37790662 0.14942075 0 0 Z M-4.8125 17.3125 C-4.4825 18.6325 -4.1525 19.9525 -3.8125 21.3125 C-1.96524948 22.00409401 -1.96524948 22.00409401 0.1875 22.3125 C1.1775 21.6525 2.1675 20.9925 3.1875 20.3125 C3.43780977 17.72869823 3.43780977 17.72869823 3.1875 15.3125 C-0.57937864 15.3125 -1.72440305 15.54787317 -4.8125 17.3125 Z " fill="#4B5966" transform="translate(115.8125,23.6875)"/>
<path d="M0 0 C0 2.97 0 5.94 0 9 C1.65 9 3.3 9 5 9 C5 10.65 5 12.3 5 14 C3.35 14 1.7 14 0 14 C0.33 18.95 0.66 23.9 1 29 C2.32 29 3.64 29 5 29 C5 30.98 5 32.96 5 35 C3.5629191 35.05422947 2.12524538 35.09289723 0.6875 35.125 C-0.11300781 35.14820313 -0.91351563 35.17140625 -1.73828125 35.1953125 C-4 35 -4 35 -7 33 C-8.08752689 28.71203683 -8.10745644 24.53073142 -8.0625 20.125 C-8.05347656 18.97257812 -8.04445312 17.82015625 -8.03515625 16.6328125 C-8.02355469 15.76398437 -8.01195312 14.89515625 -8 14 C-8.99 14 -9.98 14 -11 14 C-11 12.35 -11 10.7 -11 9 C-10.01 9 -9.02 9 -8 9 C-8.12375 8.2575 -8.2475 7.515 -8.375 6.75 C-8 4 -8 4 -5.125 1.6875 C-2 0 -2 0 0 0 Z " fill="#5CAF90" transform="translate(186,16)"/>
<path d="M0 0 C13.86 0 27.72 0 42 0 C42 1.98 42 3.96 42 6 C40.10376798 7.89623202 37.33629641 7.12897626 34.8137207 7.13894653 C33.51374146 7.13591019 33.51374146 7.13591019 32.1875 7.1328125 C30.86141724 7.13424759 30.86141724 7.13424759 29.50854492 7.13571167 C27.63557871 7.13639351 25.76261014 7.13453893 23.88964844 7.13037109 C21.01231612 7.12502289 18.13513992 7.13031593 15.2578125 7.13671875 C13.44270799 7.13605797 11.62760357 7.13477681 9.8125 7.1328125 C8.94584717 7.13483673 8.07919434 7.13686096 7.1862793 7.13894653 C1.11495009 7.11495009 1.11495009 7.11495009 0 6 C0 4.02 0 2.04 0 0 Z " fill="#5CAF90" transform="translate(0,45)"/>
<path d="M0 0 C-0.33 1.98 -0.66 3.96 -1 6 C-5.75 7 -5.75 7 -8 7 C-8.33 13.6 -8.66 20.2 -9 27 C-11.64 27 -14.28 27 -17 27 C-17 18.42 -17 9.84 -17 1 C-14.36 1 -11.72 1 -9 1 C-6.04335481 -0.4783226 -3.25770263 -0.06032783 0 0 Z " fill="#4B5966" transform="translate(103,24)"/>
<path d="M0 0 C2.64 0 5.28 0 8 0 C8 8.58 8 17.16 8 26 C5.36 26 2.72 26 0 26 C0 17.42 0 8.84 0 0 Z " fill="#5CAF90" transform="translate(164,25)"/>
<path d="M0 0 C0.763125 0.37125 1.52625 0.7425 2.3125 1.125 C2.869375 1.41375 3.42625 1.7025 4 2 C4 3.32 4 4.64 4 6 C1.69 6 -0.62 6 -3 6 C-3 6.99 -3 7.98 -3 9 C-1.02 9 0.96 9 3 9 C3 10.32 3 11.64 3 13 C-0.70415293 15.46943529 -2.62144505 15.46913089 -7 15 C-9.71316212 12.73903156 -10.01118467 10.95181987 -10.8125 7.5 C-11.07159905 2.66348449 -11.07159905 2.66348449 -9 0 C-5.54022478 -2.62465707 -3.72304808 -1.86152404 0 0 Z " fill="#5CAF90" transform="translate(35,22)"/>
<path d="M0 0 C2.64 0 5.28 0 8 0 C8 1.98 8 3.96 8 6 C5.36 6 2.72 6 0 6 C0 4.02 0 2.04 0 0 Z " fill="#5CAF90" transform="translate(164,15)"/>
<path d="" fill="#5CAF90" transform="translate(0,0)"/>
</svg>
